<?xml version="1.0" encoding="UTF-8"?>
<svg width="46px" height="48px" viewBox="0 0 46 48" version="1.1" xmlns="http://www.w3.org/2000/svg" xmlns:xlink="http://www.w3.org/1999/xlink">
    <!-- Generator: sketchtool 45.2 (43514) - http://www.bohemiancoding.com/sketch -->
    <title>1801F6E0-A2ED-43CC-8F0B-C152364695E2</title>
    <desc>Created with sketchtool.</desc>
    <defs></defs>
    <g id="Design" stroke="none" stroke-width="1" fill="none" fill-rule="evenodd">
        <g id="Desktop-HD-Copy-4" transform="translate(-38.000000, -25.000000)" fill-rule="nonzero" fill="#00AEFB">
            <g id="np_banner_38446_000000" transform="translate(38.000000, 25.000000)">
                <polygon id="Shape" points="35.8201347 32.1774223 35.8201347 5 11 5 11 32.1774223 23.4100674 41.6420724"></polygon>
                <path d="M43.672819,5.29846613e-05 C43.0912064,5.29846613e-05 42.5800104,0.275324195 42.2447234,0.695476664 L3.26390812,0.695476664 C2.92654419,0.273252495 2.41530579,5.29846613e-05 1.83581254,5.29846613e-05 C0.821633143,5.29846613e-05 0,0.821739112 0,1.83586553 C0,2.84797853 0.821686127,3.67167807 1.83581254,3.67167807 C2.40910658,3.67167807 2.91415637,3.40261667 3.25150971,2.99283859 L5.82831274,2.99283859 L5.82624263,35.0114694 L22.7543121,47.6737438 L39.6823815,35.0114694 L39.6823815,2.99071921 L42.2591845,2.99071921 C42.5965485,3.40259017 43.1015347,3.66955869 43.6748817,3.66955869 C44.6890611,3.66955869 45.5106942,2.84787256 45.5106942,1.83374614 C45.5065546,0.821633143 44.6869417,0 43.6727623,0 L43.672819,5.29846613e-05 Z M37.3994351,33.3660837 L22.7539449,44.6915551 L8.10845466,33.3660837 L8.10845466,2.99103711 L37.3989053,2.99103711 L37.3994351,33.3660837 Z" id="Shape"></path>
            </g>
        </g>
    </g>
</svg>